<?xml version="1.0" standalone="no"?>
<!DOCTYPE svg PUBLIC "-//W3C//DTD SVG 20010904//EN"
 "http://www.w3.org/TR/2001/REC-SVG-20010904/DTD/svg10.dtd">
<svg version="1.0" xmlns="http://www.w3.org/2000/svg"
 width="4134.000000pt" height="1037.000000pt" viewBox="0 0 4134.000000 1037.000000"
 preserveAspectRatio="xMidYMid meet">

<g transform="translate(0.000000,1037.000000) scale(0.100000,-0.100000)"
fill="#000000" stroke="none">
<path d="M38510 9610 c0 -19 -7 -20 -170 -20 -163 0 -170 -1 -170 -20 0 -19
-7 -20 -105 -20 l-105 0 0 -25 c0 -24 -3 -25 -60 -25 -53 0 -60 -2 -60 -20 0
-18 -7 -20 -65 -20 -58 0 -65 -2 -65 -20 0 -17 -7 -20 -40 -20 -33 0 -40 -3
-40 -20 0 -17 -7 -20 -40 -20 -33 0 -40 -3 -40 -20 0 -17 -7 -20 -45 -20 -38
0 -45 -3 -45 -20 0 -17 -7 -20 -40 -20 -36 0 -40 -2 -40 -25 0 -22 -4 -25 -40
-25 -33 0 -40 -3 -40 -20 0 -17 -7 -20 -45 -20 -38 0 -45 -3 -45 -20 0 -13 -7
-20 -20 -20 -13 0 -20 -7 -20 -20 0 -13 -7 -20 -20 -20 -13 0 -20 -7 -20 -20
0 -17 -7 -20 -40 -20 -33 0 -40 -3 -40 -20 0 -13 -7 -20 -20 -20 -15 0 -20 -7
-20 -25 0 -20 -5 -25 -25 -25 -18 0 -25 -5 -25 -20 0 -13 -7 -20 -20 -20 -13
0 -20 -7 -20 -20 0 -13 -7 -20 -20 -20 -13 0 -20 -7 -20 -20 0 -17 -7 -20 -40
-20 -33 0 -40 -3 -40 -20 0 -13 -7 -20 -20 -20 -17 0 -20 -7 -20 -45 0 -41 -2
-45 -25 -45 -18 0 -25 -5 -25 -20 0 -13 -7 -20 -20 -20 -13 0 -20 -7 -20 -20
0 -13 -7 -20 -20 -20 -13 0 -20 -7 -20 -20 0 -13 -7 -20 -20 -20 -13 0 -20 -7
-20 -20 0 -13 -7 -20 -20 -20 -17 0 -20 -7 -20 -45 0 -38 -3 -45 -20 -45 -13
0 -20 -7 -20 -20 0 -15 -7 -20 -25 -20 -18 0 -25 -5 -25 -20 0 -13 -7 -20 -20
-20 -17 0 -20 -7 -20 -40 0 -33 -3 -40 -20 -40 -17 0 -20 -7 -20 -45 0 -38 -3
-45 -20 -45 -17 0 -20 -7 -20 -40 0 -33 -3 -40 -20 -40 -17 0 -20 -7 -20 -40
0 -33 -3 -40 -20 -40 -17 0 -20 -7 -20 -45 0 -41 -2 -45 -25 -45 -22 0 -25 -4
-25 -40 0 -33 -3 -40 -20 -40 -18 0 -20 -7 -20 -60 0 -53 -2 -60 -20 -60 -18
0 -20 -7 -20 -65 0 -58 -2 -65 -20 -65 -19 0 -20 -7 -20 -105 0 -98 -1 -105
-20 -105 -19 0 -20 -7 -20 -165 0 -158 -1 -165 -20 -165 -19 0 -20 -7 -20
-165 0 -158 1 -165 20 -165 19 0 20 -7 20 -170 0 -163 1 -170 20 -170 19 0 20
-7 20 -105 0 -98 1 -105 20 -105 18 0 20 -7 20 -60 0 -53 2 -60 20 -60 18 0
20 -7 20 -65 0 -58 2 -65 20 -65 17 0 20 -7 20 -40 0 -36 3 -40 25 -40 23 0
25 -4 25 -40 0 -33 3 -40 20 -40 17 0 20 -7 20 -45 0 -38 3 -45 20 -45 17 0
20 -7 20 -40 0 -33 3 -40 20 -40 17 0 20 -7 20 -40 0 -33 3 -40 20 -40 17 0
20 -7 20 -45 0 -38 3 -45 20 -45 13 0 20 -7 20 -20 0 -15 7 -20 25 -20 18 0
25 -5 25 -20 0 -13 7 -20 20 -20 17 0 20 -7 20 -40 0 -33 3 -40 20 -40 13 0
20 -7 20 -20 0 -13 7 -20 20 -20 15 0 20 -7 20 -25 0 -18 5 -25 20 -25 13 0
20 -7 20 -20 0 -13 7 -20 20 -20 13 0 20 -7 20 -20 0 -15 7 -20 25 -20 23 0
25 -4 25 -40 0 -33 3 -40 20 -40 13 0 20 -7 20 -20 0 -17 7 -20 40 -20 36 0
40 -2 40 -25 0 -18 5 -25 20 -25 13 0 20 -7 20 -20 0 -13 7 -20 20 -20 13 0
20 -7 20 -20 0 -15 7 -20 25 -20 18 0 25 -5 25 -20 0 -13 7 -20 20 -20 13 0
20 -7 20 -20 0 -17 7 -20 40 -20 33 0 40 -3 40 -20 0 -13 7 -20 20 -20 15 0
20 -7 20 -25 0 -23 4 -25 45 -25 38 0 45 -3 45 -20 0 -13 7 -20 20 -20 13 0
20 -7 20 -20 0 -17 7 -20 40 -20 33 0 40 -3 40 -20 0 -17 7 -20 40 -20 33 0
40 -3 40 -20 0 -17 7 -20 45 -20 38 0 45 -3 45 -20 0 -17 7 -20 40 -20 36 0
40 -2 40 -25 0 -22 4 -25 40 -25 33 0 40 -3 40 -20 0 -18 7 -20 65 -20 58 0
65 -2 65 -20 0 -18 7 -20 85 -20 78 0 85 -2 85 -20 0 -18 7 -20 80 -20 73 0
80 -2 80 -20 0 -19 7 -20 170 -20 163 0 170 -1 170 -20 0 -20 7 -20 1415 -20
l1415 0 0 205 0 205 -585 0 -585 0 0 45 c0 38 3 45 20 45 13 0 20 7 20 20 0
17 7 20 45 20 38 0 45 3 45 20 0 13 7 20 20 20 13 0 20 7 20 20 0 13 7 20 20
20 13 0 20 7 20 20 0 13 7 20 20 20 13 0 20 7 20 20 0 13 7 20 20 20 15 0 20
7 20 25 0 23 4 25 45 25 l45 0 0 40 c0 33 3 40 20 40 13 0 20 7 20 20 0 13 7
20 20 20 13 0 20 7 20 20 0 13 7 20 20 20 13 0 20 7 20 20 0 13 7 20 20 20 15
0 20 7 20 25 0 20 5 25 25 25 18 0 25 5 25 20 0 13 7 20 20 20 17 0 20 7 20
40 0 33 3 40 20 40 13 0 20 7 20 20 0 13 7 20 20 20 17 0 20 7 20 45 0 38 3
45 20 45 13 0 20 7 20 20 0 13 7 20 20 20 17 0 20 7 20 40 0 36 3 40 25 40 23
0 25 4 25 40 0 33 3 40 20 40 17 0 20 7 20 45 0 38 3 45 20 45 17 0 20 7 20
40 0 33 3 40 20 40 17 0 20 7 20 40 0 33 3 40 20 40 18 0 20 7 20 65 0 58 2
65 20 65 18 0 20 7 20 85 0 84 0 85 25 85 25 0 25 1 25 80 0 73 2 80 20 80 19
0 20 7 20 170 0 163 1 170 20 170 19 0 20 7 20 165 0 158 -1 165 -20 165 -19
0 -20 7 -20 165 0 158 -1 165 -20 165 -18 0 -20 7 -20 85 0 84 0 85 -25 85
-25 0 -25 1 -25 85 0 78 -2 85 -20 85 -18 0 -20 7 -20 60 0 53 -2 60 -20 60
-17 0 -20 7 -20 40 0 33 -3 40 -20 40 -17 0 -20 7 -20 45 0 38 -3 45 -20 45
-17 0 -20 7 -20 40 0 33 -3 40 -20 40 -17 0 -20 7 -20 40 0 36 -2 40 -25 40
-23 0 -25 4 -25 45 0 38 -3 45 -20 45 -13 0 -20 7 -20 20 0 13 -7 20 -20 20
-17 0 -20 7 -20 40 0 33 -3 40 -20 40 -13 0 -20 7 -20 20 0 13 -7 20 -20 20
-17 0 -20 7 -20 45 0 38 -3 45 -20 45 -13 0 -20 7 -20 20 0 15 -7 20 -25 20
-18 0 -25 5 -25 20 0 13 -7 20 -20 20 -13 0 -20 7 -20 20 0 13 -7 20 -20 20
-13 0 -20 7 -20 20 0 13 -7 20 -20 20 -17 0 -20 7 -20 45 0 38 -3 45 -20 45
-13 0 -20 7 -20 20 0 17 -7 20 -45 20 -38 0 -45 3 -45 20 0 13 -7 20 -20 20
-13 0 -20 7 -20 20 0 13 -7 20 -20 20 -13 0 -20 7 -20 20 0 13 -7 20 -20 20
-15 0 -20 7 -20 25 0 18 -5 25 -20 25 -13 0 -20 7 -20 20 0 17 -7 20 -45 20
-38 0 -45 3 -45 20 0 13 -7 20 -20 20 -13 0 -20 7 -20 20 0 13 -7 20 -20 20
-13 0 -20 7 -20 20 0 17 -7 20 -40 20 -33 0 -40 3 -40 20 0 17 -7 20 -45 20
-41 0 -45 2 -45 25 0 23 -4 25 -40 25 -33 0 -40 3 -40 20 0 17 -7 20 -40 20
-33 0 -40 3 -40 20 0 17 -7 20 -45 20 -38 0 -45 3 -45 20 0 17 -7 20 -40 20
-33 0 -40 3 -40 20 0 18 -7 20 -60 20 -53 0 -60 2 -60 20 0 18 -7 20 -65 20
-63 0 -65 1 -65 25 l0 25 -105 0 c-98 0 -105 1 -105 20 0 19 -7 20 -165 20
-158 0 -165 1 -165 20 0 19 -7 20 -165 20 -158 0 -165 -1 -165 -20z m250 -420
c0 -18 7 -20 80 -20 73 0 80 -2 80 -20 0 -17 7 -20 45 -20 38 0 45 -3 45 -20
0 -17 7 -20 40 -20 33 0 40 -3 40 -20 0 -13 7 -20 20 -20 15 0 20 -7 20 -25 0
-18 5 -25 20 -25 13 0 20 -7 20 -20 0 -13 7 -20 20 -20 17 0 20 -7 20 -40 0
-36 3 -40 25 -40 18 0 25 -5 25 -20 0 -13 7 -20 20 -20 18 0 20 -7 20 -65 0
-58 2 -65 20 -65 19 0 20 -7 20 -205 0 -198 -1 -205 -20 -205 -17 0 -20 -7
-20 -45 0 -38 -3 -45 -20 -45 -17 0 -20 -7 -20 -40 0 -36 -2 -40 -25 -40 -18
0 -25 -5 -25 -20 0 -13 -7 -20 -20 -20 -13 0 -20 -7 -20 -20 0 -13 -7 -20 -20
-20 -15 0 -20 -7 -20 -25 0 -18 -5 -25 -20 -25 -13 0 -20 -7 -20 -20 0 -13 -7
-20 -20 -20 -13 0 -20 -7 -20 -20 0 -17 -7 -20 -45 -20 -38 0 -45 -3 -45 -20
0 -18 -7 -20 -60 -20 -53 0 -60 -2 -60 -20 0 -19 -7 -20 -165 -20 -158 0 -165
1 -165 20 0 18 -7 20 -65 20 -58 0 -65 2 -65 20 0 17 -7 20 -40 20 -33 0 -40
3 -40 20 0 13 -7 20 -20 20 -13 0 -20 7 -20 20 0 15 -7 20 -25 20 -20 0 -25 5
-25 25 0 18 -5 25 -20 25 -13 0 -20 7 -20 20 0 13 -7 20 -20 20 -13 0 -20 7
-20 20 0 13 -7 20 -20 20 -17 0 -20 7 -20 40 0 33 -3 40 -20 40 -17 0 -20 7
-20 45 0 38 -3 45 -20 45 -19 0 -20 7 -20 205 0 198 1 205 20 205 18 0 20 7
20 65 0 58 2 65 20 65 13 0 20 7 20 20 0 13 7 20 20 20 17 0 20 7 20 40 0 33
3 40 20 40 13 0 20 7 20 20 0 13 7 20 20 20 15 0 20 7 20 25 0 20 5 25 25 25
18 0 25 5 25 20 0 17 7 20 40 20 33 0 40 3 40 20 0 17 7 20 40 20 33 0 40 3
40 20 0 18 7 20 85 20 78 0 85 2 85 20 0 18 7 20 85 20 78 0 85 -2 85 -20z
m-1420 -1080 c0 -18 7 -20 60 -20 53 0 60 -2 60 -20 0 -17 7 -20 45 -20 41 0
45 -2 45 -25 0 -18 5 -25 20 -25 13 0 20 -7 20 -20 0 -17 7 -20 40 -20 33 0
40 -3 40 -20 0 -13 7 -20 20 -20 17 0 20 -7 20 -40 0 -36 3 -40 25 -40 18 0
25 -5 25 -20 0 -13 7 -20 20 -20 17 0 20 -7 20 -45 0 -38 3 -45 20 -45 18 0
20 -7 20 -60 0 -53 2 -60 20 -60 19 0 20 -7 20 -145 0 -138 -1 -145 -20 -145
-18 0 -20 -7 -20 -65 0 -58 -2 -65 -20 -65 -17 0 -20 -7 -20 -40 0 -33 -3 -40
-20 -40 -13 0 -20 -7 -20 -20 0 -15 -7 -20 -25 -20 -20 0 -25 -5 -25 -25 0
-18 -5 -25 -20 -25 -13 0 -20 -7 -20 -20 0 -13 -7 -20 -20 -20 -13 0 -20 -7
-20 -20 0 -13 -7 -20 -20 -20 -13 0 -20 -7 -20 -20 0 -13 -7 -20 -20 -20 -13
0 -20 -7 -20 -20 0 -17 -7 -20 -45 -20 -38 0 -45 -3 -45 -20 0 -18 -7 -20 -80
-20 -79 0 -80 0 -80 -25 l0 -25 -125 0 -125 0 0 25 c0 24 -2 25 -65 25 -58 0
-65 2 -65 20 0 17 -7 20 -40 20 -33 0 -40 3 -40 20 0 13 -7 20 -20 20 -13 0
-20 7 -20 20 0 13 -7 20 -20 20 -13 0 -20 7 -20 20 0 17 -7 20 -45 20 l-45 0
0 45 c0 38 -3 45 -20 45 -13 0 -20 7 -20 20 0 13 -7 20 -20 20 -17 0 -20 7
-20 40 0 33 -3 40 -20 40 -18 0 -20 7 -20 65 0 58 -2 65 -20 65 -19 0 -20 7
-20 145 0 138 1 145 20 145 18 0 20 7 20 60 0 53 2 60 20 60 17 0 20 7 20 45
0 38 3 45 20 45 13 0 20 7 20 20 0 13 7 20 20 20 17 0 20 7 20 40 0 33 3 40
20 40 13 0 20 7 20 20 0 17 7 20 45 20 38 0 45 3 45 20 0 13 7 20 20 20 15 0
20 7 20 25 0 23 4 25 40 25 33 0 40 3 40 20 0 18 7 20 65 20 58 0 65 2 65 20
0 19 7 20 145 20 138 0 145 -1 145 -20z m2960 0 c0 -18 7 -20 60 -20 53 0 60
-2 60 -20 0 -17 7 -20 45 -20 41 0 45 -2 45 -25 0 -18 5 -25 20 -25 13 0 20
-7 20 -20 0 -13 7 -20 20 -20 13 0 20 -7 20 -20 0 -17 7 -20 40 -20 l40 0 0
-40 c0 -33 3 -40 20 -40 13 0 20 -7 20 -20 0 -15 7 -20 25 -20 23 0 25 -4 25
-45 0 -38 3 -45 20 -45 18 0 20 -7 20 -60 0 -53 2 -60 20 -60 19 0 20 -7 20
-145 0 -138 -1 -145 -20 -145 -18 0 -20 -7 -20 -65 0 -58 -2 -65 -20 -65 -17
0 -20 -7 -20 -40 0 -36 -2 -40 -25 -40 -18 0 -25 -5 -25 -20 0 -13 -7 -20 -20
-20 -15 0 -20 -7 -20 -25 0 -18 -5 -25 -20 -25 -13 0 -20 -7 -20 -20 0 -13 -7
-20 -20 -20 -13 0 -20 -7 -20 -20 0 -13 -7 -20 -20 -20 -13 0 -20 -7 -20 -20
0 -13 -7 -20 -20 -20 -13 0 -20 -7 -20 -20 0 -17 -7 -20 -45 -20 -38 0 -45 -3
-45 -20 0 -18 -7 -20 -60 -20 -57 0 -60 -1 -60 -25 l0 -25 -125 0 -125 0 0 25
c0 25 -1 25 -85 25 -78 0 -85 2 -85 20 0 17 -7 20 -40 20 -33 0 -40 3 -40 20
0 13 -7 20 -20 20 -13 0 -20 7 -20 20 0 15 -7 20 -25 20 -18 0 -25 5 -25 20 0
13 -7 20 -20 20 -13 0 -20 7 -20 20 0 13 -7 20 -20 20 -15 0 -20 7 -20 25 0
18 -5 25 -20 25 -13 0 -20 7 -20 20 0 13 -7 20 -20 20 -17 0 -20 7 -20 40 0
33 -3 40 -20 40 -18 0 -20 7 -20 65 0 63 -1 65 -25 65 l-25 0 0 145 0 145 25
0 c24 0 25 3 25 60 0 53 2 60 20 60 17 0 20 7 20 45 0 38 3 45 20 45 13 0 20
7 20 20 0 13 7 20 20 20 17 0 20 7 20 40 0 33 3 40 20 40 13 0 20 7 20 20 0
17 7 20 45 20 38 0 45 3 45 20 0 13 7 20 20 20 15 0 20 7 20 25 0 23 4 25 40
25 33 0 40 3 40 20 0 18 7 20 65 20 58 0 65 2 65 20 0 19 7 20 145 20 138 0
145 -1 145 -20z m-1590 -920 c0 -17 7 -20 45 -20 38 0 45 -3 45 -20 0 -13 7
-20 20 -20 13 0 20 -7 20 -20 0 -13 7 -20 20 -20 17 0 20 -7 20 -45 0 -38 3
-45 20 -45 17 0 20 -7 20 -40 0 -33 -3 -40 -20 -40 -17 0 -20 -7 -20 -40 0
-33 -3 -40 -20 -40 -13 0 -20 -7 -20 -20 0 -13 -7 -20 -20 -20 -15 0 -20 -7
-20 -25 0 -23 -4 -25 -45 -25 -38 0 -45 -3 -45 -20 0 -17 -7 -20 -40 -20 -33
0 -40 3 -40 20 0 17 -7 20 -40 20 -36 0 -40 3 -40 25 0 18 -5 25 -20 25 -13 0
-20 7 -20 20 0 15 -7 20 -25 20 -22 0 -25 4 -25 40 0 33 -3 40 -20 40 -17 0
-20 7 -20 40 0 33 3 40 20 40 17 0 20 7 20 45 0 41 2 45 25 45 18 0 25 5 25
20 0 13 7 20 20 20 13 0 20 7 20 20 0 17 7 20 40 20 33 0 40 3 40 20 0 17 7
20 40 20 33 0 40 -3 40 -20z m-790 -830 c0 -18 7 -20 65 -20 58 0 65 -2 65
-20 0 -17 7 -20 40 -20 36 0 40 -2 40 -25 0 -18 5 -25 20 -25 13 0 20 -7 20
-20 0 -13 7 -20 20 -20 13 0 20 -7 20 -20 0 -15 7 -20 25 -20 18 0 25 -5 25
-20 0 -13 7 -20 20 -20 13 0 20 -7 20 -20 0 -13 7 -20 20 -20 17 0 20 -7 20
-45 0 -38 3 -45 20 -45 17 0 20 -7 20 -40 0 -33 3 -40 20 -40 19 0 20 -7 20
-210 0 -203 -1 -210 -20 -210 -18 0 -20 -7 -20 -60 0 -53 -2 -60 -20 -60 -13
0 -20 -7 -20 -20 0 -13 -7 -20 -20 -20 -17 0 -20 -7 -20 -45 0 -38 -3 -45 -20
-45 -13 0 -20 -7 -20 -20 0 -15 -7 -20 -25 -20 -18 0 -25 -5 -25 -20 0 -17 -7
-20 -40 -20 -33 0 -40 -3 -40 -20 0 -13 -7 -20 -20 -20 -13 0 -20 -7 -20 -20
0 -17 -7 -20 -40 -20 -33 0 -40 -3 -40 -20 0 -19 -7 -20 -105 -20 l-105 0 0
-25 c0 -23 -4 -25 -45 -25 -41 0 -45 2 -45 25 l0 25 -100 0 c-93 0 -100 1
-100 20 0 17 -7 20 -45 20 -38 0 -45 3 -45 20 0 13 -7 20 -20 20 -13 0 -20 7
-20 20 0 17 -7 20 -40 20 -33 0 -40 3 -40 20 0 13 -7 20 -20 20 -13 0 -20 7
-20 20 0 15 -7 20 -25 20 -23 0 -25 4 -25 45 0 38 -3 45 -20 45 -17 0 -20 7
-20 40 0 33 -3 40 -20 40 -17 0 -20 7 -20 40 0 33 -3 40 -20 40 -19 0 -20 7
-20 210 0 203 1 210 20 210 17 0 20 7 20 40 0 33 3 40 20 40 17 0 20 7 20 45
0 38 3 45 20 45 13 0 20 7 20 20 0 15 7 20 25 20 18 0 25 5 25 20 0 13 7 20
20 20 13 0 20 7 20 20 0 13 7 20 20 20 13 0 20 7 20 20 0 13 7 20 20 20 15 0
20 7 20 25 0 23 4 25 40 25 33 0 40 3 40 20 0 18 7 20 65 20 58 0 65 2 65 20
0 19 7 20 165 20 158 0 165 -1 165 -20z m1840 0 c0 -18 7 -20 60 -20 53 0 60
-2 60 -20 0 -17 7 -20 40 -20 36 0 40 -2 40 -25 0 -20 5 -25 25 -25 18 0 25
-5 25 -20 0 -13 7 -20 20 -20 13 0 20 -7 20 -20 0 -13 7 -20 20 -20 13 0 20
-7 20 -20 0 -13 7 -20 20 -20 13 0 20 -7 20 -20 0 -13 7 -20 20 -20 17 0 20
-7 20 -45 0 -38 3 -45 20 -45 17 0 20 -7 20 -40 0 -36 3 -40 25 -40 l25 0 0
-210 0 -210 -25 0 c-22 0 -25 -4 -25 -40 0 -33 -3 -40 -20 -40 -17 0 -20 -7
-20 -40 0 -33 -3 -40 -20 -40 -17 0 -20 -7 -20 -45 0 -38 -3 -45 -20 -45 -13
0 -20 -7 -20 -20 0 -13 -7 -20 -20 -20 -13 0 -20 -7 -20 -20 0 -17 -7 -20 -45
-20 -38 0 -45 -3 -45 -20 0 -13 -7 -20 -20 -20 -13 0 -20 -7 -20 -20 0 -17 -7
-20 -40 -20 -33 0 -40 -3 -40 -20 0 -19 -7 -20 -105 -20 l-105 0 0 -25 c0 -22
-4 -25 -40 -25 -36 0 -40 3 -40 25 l0 25 -105 0 c-98 0 -105 1 -105 20 0 17
-7 20 -40 20 -33 0 -40 3 -40 20 0 15 -7 20 -25 20 -18 0 -25 5 -25 20 0 17
-7 20 -40 20 -33 0 -40 3 -40 20 0 13 -7 20 -20 20 -13 0 -20 7 -20 20 0 13
-7 20 -20 20 -17 0 -20 7 -20 45 0 38 -3 45 -20 45 -13 0 -20 7 -20 20 0 15
-7 20 -25 20 -24 0 -25 3 -25 60 0 53 -2 60 -20 60 -19 0 -20 7 -20 210 0 203
1 210 20 210 17 0 20 7 20 40 0 36 3 40 25 40 23 0 25 4 25 45 0 38 3 45 20
45 13 0 20 7 20 20 0 13 7 20 20 20 13 0 20 7 20 20 0 13 7 20 20 20 13 0 20
7 20 20 0 13 7 20 20 20 13 0 20 7 20 20 0 13 7 20 20 20 15 0 20 7 20 25 0
23 4 25 45 25 38 0 45 3 45 20 0 17 7 20 40 20 33 0 40 3 40 20 0 19 7 20 190
20 183 0 190 -1 190 -20z"/>
<path d="M18920 6806 l0 -2496 605 0 605 0 0 894 0 894 503 5 c525 5 612 11
821 58 789 175 1266 755 1266 1539 0 806 -482 1383 -1290 1544 -242 48 -247
49 -1407 53 l-1103 4 0 -2495z m2133 1486 c225 -62 360 -192 412 -397 25 -99
30 -237 11 -344 -41 -235 -169 -379 -401 -450 -99 -31 -287 -42 -640 -39
l-300 3 -3 628 -2 628 422 -3 c397 -4 428 -5 501 -26z"/>
<path d="M24920 8324 c-159 -18 -230 -29 -327 -50 -550 -121 -980 -439 -1236
-914 -101 -186 -181 -436 -219 -684 -31 -202 -31 -560 0 -762 50 -325 155
-603 317 -843 298 -443 767 -719 1349 -796 135 -17 449 -20 576 -5 760 92
1350 550 1575 1222 19 58 35 111 35 117 0 8 -174 11 -645 11 l-645 0 -21 -42
c-108 -212 -336 -338 -609 -338 -270 0 -500 122 -624 330 -63 107 -112 251
-123 368 l-6 62 1377 0 c1309 0 1376 1 1376 18 0 9 5 89 11 177 35 534 -100
1037 -377 1405 -287 381 -712 624 -1234 705 -100 15 -470 28 -550 19z m400
-989 c36 -9 108 -37 160 -62 211 -101 352 -311 362 -538 l3 -60 -754 -3 c-415
-1 -758 1 -762 5 -14 16 33 171 81 269 101 209 286 351 519 400 87 18 303 12
391 -11z"/>
<path d="M30049 8309 c-194 -17 -419 -92 -591 -196 -161 -97 -333 -256 -454
-419 l-59 -79 -3 328 -2 327 -605 0 -605 0 0 -1980 0 -1980 605 0 605 0 0 938
c0 559 4 981 10 1047 31 331 147 531 370 638 168 80 273 97 618 97 l252 0 0
645 0 645 -22 -1 c-13 -1 -66 -6 -119 -10z"/>
<path d="M30740 7033 c0 -757 4 -1273 10 -1328 53 -473 227 -840 517 -1090
196 -168 419 -270 703 -322 120 -21 449 -24 560 -5 380 67 672 233 902 512
l38 45 0 -267 0 -268 605 0 605 0 0 1980 0 1980 -605 0 -604 0 -4 -1177 -3
-1178 -22 -80 c-13 -44 -44 -123 -70 -175 -85 -174 -244 -301 -438 -350 -220
-56 -474 -25 -649 81 -116 70 -236 223 -286 365 -55 160 -52 95 -56 1352 l-4
1162 -599 0 -600 0 0 -1237z"/>
</g>
</svg>
